<svg xmlns="http://www.w3.org/2000/svg" version="1.1" xmlns:xlink="http://www.w3.org/1999/xlink" xmlns:svgjs="http://svgjs.dev/svgjs" width="128" height="128" viewBox="0 0 128 128"><g transform="matrix(0.8046875,0,0,0.8046875,12.333870967741937,12.333870967741937)"><svg viewBox="0 0 155 155" data-background-color="#27273a" preserveAspectRatio="xMidYMid meet" height="128" width="128" xmlns="http://www.w3.org/2000/svg" xmlns:xlink="http://www.w3.org/1999/xlink"><g id="tight-bounds" transform="matrix(1,0,0,1,0.25,0.25)"><svg viewBox="0 0 154.5 154.5" height="154.5" width="154.5"><g><svg></svg></g><g><svg viewBox="0 0 154.5 154.5" height="154.5" width="154.5"><g transform="matrix(1,0,0,1,52.37308130990415,43.83165)"><svg viewBox="0 0 49.75383738019169 66.8367" height="66.8367" width="49.75383738019169"><g><svg viewBox="0 0 49.75383738019169 66.8367" height="66.8367" width="49.75383738019169"><g><svg viewBox="0 0 49.75383738019169 66.8367" height="66.8367" width="49.75383738019169"><g id="textblocktransform"><svg viewBox="0 0 49.75383738019169 66.8367" height="66.8367" width="49.75383738019169" id="textblock"><g><svg viewBox="0 0 49.75383738019169 66.8367" height="66.8367" width="49.75383738019169"><g transform="matrix(1,0,0,1,0,0)"><svg width="49.75383738019169" viewBox="-1.25 -39 35.95 47.95" height="66.8367" data-palette-color="#ffffff"><path d="M25.8 5.95L25.8 5.95Q23.5 5.95 21.55 4.67 19.6 3.4 17.8 1.85L17.8 1.85Q16.6 2.45 15.35 2.8 14.1 3.15 12.8 3.15L12.8 3.15Q11.1 3.15 10 2.63 8.9 2.1 8.33 1.35 7.75 0.6 7.53-0.13 7.3-0.85 7.3-1.25L7.3-1.25Q7.3-2.1 8.13-2.98 8.95-3.85 10.95-3.85L10.95-3.85Q13-3.85 14.95-2.88 16.9-1.9 18.9-0.65L18.9-0.65Q21.15-2.65 22.88-5.75 24.6-8.85 25.78-12.4 26.95-15.95 27.58-19.38 28.2-22.8 28.2-25.45L28.2-25.45Q28.2-29.55 26.65-32.1 25.1-34.65 21.6-34.65L21.6-34.65Q18.7-34.65 16.2-32.93 13.7-31.2 11.68-28.3 9.65-25.4 8.2-21.83 6.75-18.25 5.98-14.45 5.2-10.65 5.2-7.2L5.2-7.2Q5.2-6.15 5.3-5.1 5.4-4.05 5.6-3L5.6-3Q4.05-3 3.23-4 2.4-5 2.08-6.58 1.75-8.15 1.75-9.95L1.75-9.95Q1.75-13.7 2.75-17.43 3.75-21.15 5.58-24.5 7.4-27.85 9.88-30.43 12.35-33 15.33-34.5 18.3-36 21.55-36L21.55-36Q26.35-36 29.03-32.73 31.7-29.45 31.7-23.85L31.7-23.85Q31.7-20.7 30.85-17.28 30-13.85 28.48-10.58 26.95-7.3 24.9-4.5 22.85-1.7 20.4 0.2L20.4 0.2Q22.1 1.15 23.93 1.83 25.75 2.5 27.8 2.5L27.8 2.5Q28.9 2.5 29.43 2.3 29.95 2.1 30.7 1.9L30.7 1.9Q30.2 3.65 29.33 4.53 28.45 5.4 27.53 5.68 26.6 5.95 25.8 5.95ZM12.8 1.9L12.8 1.9Q13.85 1.9 14.83 1.63 15.8 1.35 16.7 0.85L16.7 0.85Q15.15-0.5 13.63-1.53 12.1-2.55 10.45-2.55L10.45-2.55Q9.3-2.55 8.95-2.08 8.6-1.6 8.6-1.2L8.6-1.2Q8.6-0.75 8.95-0.03 9.3 0.7 10.2 1.3 11.1 1.9 12.8 1.9Z" opacity="1" transform="matrix(1,0,0,1,0,0)" fill="#ffffff" class="undefined-text-0" data-fill-palette-color="primary" id="text-0"></path></svg></g></svg></g></svg></g></svg></g></svg></g></svg></g><g><path d="M0 154.5v-154.5h154.5v154.5zM149.114 149.114v-143.729h-143.729v143.729z" fill="#ffffff" fill-rule="nonzero" stroke="none" stroke-width="1" stroke-linecap="butt" stroke-linejoin="miter" stroke-miterlimit="10" stroke-dasharray="" stroke-dashoffset="0" font-family="none" font-weight="none" font-size="none" text-anchor="none" style="mix-blend-mode: normal" data-fill-palette-color="tertiary"></path></g></svg></g><defs><mask><rect width="154.5" height="154.5" fill="white"></rect><g transform="matrix(1,0,0,1,52.37308130990415,43.83165)" id="clone"><svg viewBox="0 0 49.75383738019169 66.8367" height="66.8367" width="49.75383738019169"><g><svg viewBox="0 0 49.75383738019169 66.8367" height="66.8367" width="49.75383738019169"><g><svg viewBox="0 0 49.75383738019169 66.8367" height="66.8367" width="49.75383738019169"><g id="SvgjsG1240"><svg viewBox="0 0 49.75383738019169 66.8367" height="66.8367" width="49.75383738019169" id="SvgjsSvg1239"><g><svg viewBox="0 0 49.75383738019169 66.8367" height="66.8367" width="49.75383738019169"><g transform="matrix(1,0,0,1,0,0)"><svg width="49.75383738019169" viewBox="-1.25 -39 35.95 47.95" height="66.8367" data-palette-color="#ffffff"><path d="M25.8 5.95L25.8 5.95Q23.5 5.95 21.55 4.67 19.6 3.4 17.8 1.85L17.8 1.85Q16.6 2.45 15.35 2.8 14.1 3.15 12.8 3.15L12.8 3.15Q11.1 3.15 10 2.63 8.9 2.1 8.33 1.35 7.75 0.6 7.53-0.13 7.3-0.85 7.3-1.25L7.3-1.25Q7.3-2.1 8.13-2.98 8.95-3.85 10.95-3.85L10.95-3.85Q13-3.85 14.95-2.88 16.9-1.9 18.9-0.65L18.9-0.65Q21.15-2.65 22.88-5.75 24.6-8.85 25.78-12.4 26.95-15.95 27.58-19.38 28.2-22.8 28.2-25.45L28.2-25.45Q28.2-29.55 26.65-32.1 25.1-34.65 21.6-34.65L21.6-34.65Q18.7-34.65 16.2-32.93 13.7-31.2 11.68-28.3 9.65-25.4 8.2-21.83 6.75-18.25 5.98-14.45 5.2-10.65 5.2-7.2L5.2-7.2Q5.2-6.15 5.3-5.1 5.4-4.05 5.6-3L5.6-3Q4.05-3 3.23-4 2.4-5 2.08-6.58 1.75-8.15 1.75-9.95L1.75-9.95Q1.75-13.7 2.75-17.43 3.75-21.15 5.58-24.5 7.4-27.85 9.88-30.43 12.35-33 15.33-34.5 18.3-36 21.55-36L21.55-36Q26.35-36 29.03-32.73 31.7-29.45 31.7-23.85L31.7-23.85Q31.7-20.7 30.85-17.28 30-13.85 28.48-10.58 26.95-7.3 24.9-4.5 22.85-1.7 20.4 0.2L20.4 0.2Q22.1 1.15 23.93 1.83 25.75 2.5 27.8 2.5L27.8 2.5Q28.9 2.5 29.43 2.3 29.95 2.1 30.7 1.9L30.7 1.9Q30.2 3.65 29.33 4.53 28.45 5.4 27.53 5.68 26.6 5.95 25.8 5.95ZM12.8 1.9L12.8 1.9Q13.85 1.9 14.83 1.63 15.8 1.35 16.7 0.85L16.7 0.85Q15.15-0.5 13.63-1.53 12.1-2.55 10.45-2.55L10.45-2.55Q9.3-2.55 8.95-2.08 8.6-1.6 8.6-1.2L8.6-1.2Q8.6-0.75 8.95-0.03 9.3 0.7 10.2 1.3 11.1 1.9 12.8 1.9Z" opacity="1" transform="matrix(1,0,0,1,0,0)" fill="#ffffff" class="undefined-text-0" data-fill-palette-color="primary" id="SvgjsPath1238" stroke-width="5" stroke="black" stroke-linejoin="round"></path></svg></g></svg></g></svg></g></svg></g></svg></g></svg></g></mask></defs></svg><rect width="154.5" height="154.5" fill="none" stroke="none" visibility="hidden"></rect></g></svg></g></svg>