<svg xmlns="http://www.w3.org/2000/svg" version="1.1" xmlns:xlink="http://www.w3.org/1999/xlink" xmlns:svgjs="http://svgjs.dev/svgjs" width="1000" height="1000" viewBox="0 0 1000 1000"><rect width="1000" height="1000" fill="#ffffff"></rect><g transform="matrix(0.7,0,0,0.7,149.57575757575756,282.1265587044535)"><svg viewBox="0 0 396 247" data-background-color="#27273a" preserveAspectRatio="xMidYMid meet" height="623" width="1000" xmlns="http://www.w3.org/2000/svg" xmlns:xlink="http://www.w3.org/1999/xlink"><g id="tight-bounds" transform="matrix(1,0,0,1,0.2400000000000091,-0.09999999999999432)"><svg viewBox="0 0 395.52 247.2" height="247.2" width="395.52"><g><svg></svg></g><g><svg viewBox="0 0 395.52 247.2" height="247.2" width="395.52"><g mask="url(&quot;#72dbcb0b-83a9-40d1-a2f1-c0947721dbc0&quot;)"><g><path d="M251.237 247.2v0c-9.036 0-17.384-2.514-25.045-7.543-7.661-4.989-15.026-10.528-22.097-16.617v0c-4.714 2.357-9.527 4.223-14.438 5.598-4.911 1.375-9.919 2.062-15.026 2.062v0c-6.678 0-12.178-1.021-16.5-3.064-4.321-2.082-7.602-4.596-9.84-7.543-2.279-2.946-3.85-5.853-4.715-8.721-0.904-2.829-1.355-5.028-1.355-6.6v0c0-3.339 1.63-6.737 4.891-10.194 3.221-3.418 8.761-5.127 16.617-5.127v0c8.053 0 15.91 1.905 23.571 5.716 7.661 3.85 15.419 8.23 23.277 13.141v0c8.839-7.857 16.657-17.875 23.453-30.053 6.757-12.178 12.453-25.241 17.089-39.187 4.596-13.946 8.132-27.657 10.607-41.131 2.436-13.435 3.653-25.358 3.653-35.769v0c0-16.107-3.045-29.169-9.134-39.186-6.089-10.018-16.009-15.026-29.758-15.027v0c-11.393 0-22 3.378-31.821 10.136-9.821 6.796-18.7 15.891-26.635 27.283-7.975 11.393-14.81 24.101-20.507 38.126-5.696 14.064-10.057 28.56-13.081 43.488-3.064 14.928-4.596 29.169-4.597 42.723v0c0 4.125 0.196 8.25 0.59 12.374 0.393 4.125 0.982 8.25 1.767 12.375v0c-6.089 0-10.744-1.964-13.965-5.893-3.261-3.928-5.52-8.996-6.777-15.203-1.296-6.168-1.945-12.787-1.945-19.858v0c0-14.732 1.964-29.424 5.893-44.078 3.928-14.614 9.487-28.501 16.677-41.662 7.15-13.16 15.596-24.808 25.338-34.944 9.703-10.096 20.408-18.091 32.116-23.983 11.668-5.893 23.885-8.839 36.652-8.839v0c18.857 0 33.549 6.423 44.078 19.269 10.489 12.885 15.734 30.328 15.734 52.328v0c0 12.375-1.67 25.28-5.009 38.715-3.339 13.475-7.994 26.635-13.966 39.481-6.011 12.885-13.043 24.828-21.096 35.828-8.053 11-16.892 20.232-26.517 27.696v0c6.678 3.732 13.612 6.934 20.801 9.605 7.15 2.632 14.751 3.948 22.805 3.948v0c4.321 0 7.523-0.393 9.605-1.178 2.043-0.786 4.537-1.571 7.484-2.358v0c-1.964 6.875-4.655 12.041-8.073 15.498-3.457 3.418-6.993 5.677-10.607 6.777-3.653 1.061-7.052 1.591-10.194 1.591zM174.631 223.334v0c4.125 0 8.112-0.53 11.962-1.591 3.811-1.1 7.484-2.632 11.02-4.596v0c-6.089-5.303-12.119-9.978-18.091-14.025-6.011-4.007-12.257-6.011-18.739-6.01v0c-4.518 0-7.464 0.923-8.839 2.769-1.375 1.886-2.062 3.614-2.062 5.186v0c0 1.768 0.687 4.066 2.062 6.894 1.375 2.868 3.83 5.48 7.366 7.838 3.536 2.357 8.643 3.536 15.321 3.535z" fill="#000000" fill-rule="nonzero" stroke="none" stroke-width="1" stroke-linecap="butt" stroke-linejoin="miter" stroke-miterlimit="10" stroke-dasharray="" stroke-dashoffset="0" font-family="none" font-weight="none" font-size="none" text-anchor="none" style="mix-blend-mode: normal" data-fill-palette-color="tertiary"></path></g></g><g transform="matrix(1,0,0,1,2.842170943040401e-14,61.87014755959137)"><svg viewBox="0 0 395.5199999999999 123.45970488081724" height="123.45970488081724" width="395.5199999999999"><g><svg viewBox="0 0 395.5199999999999 123.45970488081724" height="123.45970488081724" width="395.5199999999999"><g><svg viewBox="0 0 395.5199999999999 123.45970488081724" height="123.45970488081724" width="395.5199999999999"><g><svg viewBox="0 0 395.5199999999999 123.45970488081724" height="123.45970488081724" width="395.5199999999999"><g id="textblocktransform"><svg viewBox="0 0 395.5199999999999 123.45970488081724" height="123.45970488081724" width="395.5199999999999" id="textblock"><g><svg viewBox="0 0 395.5199999999999 123.45970488081724" height="123.45970488081724" width="395.5199999999999"><g transform="matrix(1,0,0,1,0,0)"><svg width="395.5199999999999" viewBox="-1.25 -39 177.18 56" height="123.45970488081724" data-palette-color="#ffffff"><path d="M25.8 5.95L25.8 5.95Q23.5 5.95 21.55 4.67 19.6 3.4 17.8 1.85L17.8 1.85Q16.6 2.45 15.35 2.8 14.1 3.15 12.8 3.15L12.8 3.15Q11.1 3.15 10 2.63 8.9 2.1 8.33 1.35 7.75 0.6 7.53-0.13 7.3-0.85 7.3-1.25L7.3-1.25Q7.3-2.1 8.13-2.98 8.95-3.85 10.95-3.85L10.95-3.85Q13-3.85 14.95-2.88 16.9-1.9 18.9-0.65L18.9-0.65Q21.15-2.65 22.88-5.75 24.6-8.85 25.78-12.4 26.95-15.95 27.58-19.38 28.2-22.8 28.2-25.45L28.2-25.45Q28.2-29.55 26.65-32.1 25.1-34.65 21.6-34.65L21.6-34.65Q18.7-34.65 16.2-32.93 13.7-31.2 11.68-28.3 9.65-25.4 8.2-21.83 6.75-18.25 5.98-14.45 5.2-10.65 5.2-7.2L5.2-7.2Q5.2-6.15 5.3-5.1 5.4-4.05 5.6-3L5.6-3Q4.05-3 3.23-4 2.4-5 2.08-6.58 1.75-8.15 1.75-9.95L1.75-9.95Q1.75-13.7 2.75-17.43 3.75-21.15 5.58-24.5 7.4-27.85 9.88-30.43 12.35-33 15.33-34.5 18.3-36 21.55-36L21.55-36Q26.35-36 29.03-32.73 31.7-29.45 31.7-23.85L31.7-23.85Q31.7-20.7 30.85-17.28 30-13.85 28.48-10.58 26.95-7.3 24.9-4.5 22.85-1.7 20.4 0.2L20.4 0.2Q22.1 1.15 23.93 1.83 25.75 2.5 27.8 2.5L27.8 2.5Q28.9 2.5 29.43 2.3 29.95 2.1 30.7 1.9L30.7 1.9Q30.2 3.65 29.33 4.53 28.45 5.4 27.53 5.68 26.6 5.95 25.8 5.95ZM12.8 1.9L12.8 1.9Q13.85 1.9 14.83 1.63 15.8 1.35 16.7 0.85L16.7 0.85Q15.15-0.5 13.63-1.53 12.1-2.55 10.45-2.55L10.45-2.55Q9.3-2.55 8.95-2.08 8.6-1.6 8.6-1.2L8.6-1.2Q8.6-0.75 8.95-0.03 9.3 0.7 10.2 1.3 11.1 1.9 12.8 1.9ZM37.15 1.5L37.15 1.5Q35.45 1.5 34.42-0.03 33.4-1.55 33.4-3.55L33.4-3.55Q33.4-5 33.87-6.9 34.35-8.8 35.05-10.65 35.75-12.5 36.5-13.7 37.25-14.9 37.8-14.9L37.8-14.9Q38.05-14.9 38.65-14.63 39.25-14.35 39.65-13.9L39.65-13.9Q39.1-13.05 38.3-11.3 37.5-9.55 36.9-7.55 36.3-5.55 36.3-3.85L36.3-3.85Q36.3-3.45 36.4-2.63 36.5-1.8 36.9-1.15 37.3-0.5 38.1-0.5L38.1-0.5Q39.05-0.5 40.05-1.48 41.05-2.45 42.07-4 43.1-5.55 44.05-7.35 45-9.15 45.82-10.8 46.65-12.45 47.2-13.55L47.2-13.55Q47.5-13.5 48.07-13.35 48.65-13.2 49.12-12.95 49.6-12.7 49.6-12.25L49.6-12.25Q49.6-12.05 49.1-10.93 48.6-9.8 47.92-8.18 47.25-6.55 46.75-4.9 46.25-3.25 46.25-2L46.25-2Q46.25-1.1 46.62-0.55 47 0 47.9 0L47.9 0Q48.95 0 50.45-0.95 51.95-1.9 53.5-3.73 55.05-5.55 56.25-8.1L56.25-8.1 56.9-7.65Q55.85-4.95 54.15-2.88 52.45-0.8 50.55 0.35 48.65 1.5 46.85 1.5L46.85 1.5Q45.55 1.5 44.77 1 44 0.5 43.67-0.35 43.35-1.2 43.35-2.2L43.35-2.2Q43.35-2.8 43.45-3.43 43.55-4.05 43.7-4.7L43.7-4.7Q42.8-3.05 41.75-1.63 40.7-0.2 39.55 0.65 38.4 1.5 37.15 1.5ZM57.7 2.35L57.7 2.35Q56.15 2.35 55.07 1.33 54 0.3 54-1.8L54-1.8Q54-3.6 54.8-5.68 55.59-7.75 57-9.78 58.4-11.8 60.17-13.48 61.95-15.15 63.92-16.15 65.9-17.15 67.84-17.15L67.84-17.15Q69.8-17.15 71.09-16.13 72.4-15.1 72.4-13.4L72.4-13.4Q72.4-12.15 71.72-11.7 71.05-11.25 69.95-11.25L69.95-11.25Q70.05-11.65 70.12-12.13 70.2-12.6 70.2-13L70.2-13Q70.2-14.15 69.65-14.98 69.09-15.8 67.75-15.8L67.75-15.8Q66.34-15.8 64.9-14.83 63.45-13.85 62.09-12.23 60.75-10.6 59.7-8.7 58.65-6.8 58.05-4.95 57.45-3.1 57.45-1.65L57.45-1.65Q57.45 0.3 58.8 0.3L58.8 0.3Q59.95 0.3 61.3-0.78 62.65-1.85 64.07-3.53 65.5-5.2 66.8-7 68.09-8.8 69.09-10.3L69.09-10.3Q69.3-10.6 69.34-10.6L69.34-10.6Q69.65-10.55 70.12-10.4 70.59-10.25 70.95-10 71.3-9.75 71.3-9.35L71.3-9.35Q71.3-8.9 70.84-8.13 70.4-7.35 69.84-6.35 69.3-5.35 68.84-4.33 68.4-3.3 68.4-2.4L68.4-2.4Q68.4-1.65 68.8-0.93 69.2-0.2 70.09-0.2L70.09-0.2Q71.45-0.2 73.65-2.18 75.84-4.15 78.09-8.1L78.09-8.1 78.59-7.6Q77.55-4.9 75.9-2.85 74.25-0.8 72.37 0.35 70.5 1.5 68.7 1.5L68.7 1.5Q66.84 1.5 65.97 0.4 65.09-0.7 65.09-2L65.09-2Q65.09-2.3 65.15-2.68 65.2-3.05 65.25-3.45L65.25-3.45Q63.09-0.55 61.32 0.9 59.55 2.35 57.7 2.35ZM80.04 1.5L80.04 1.5Q79.19 1.5 78.32 1.07 77.44 0.65 76.87-0.3 76.29-1.25 76.29-2.7L76.29-2.7Q76.29-4.35 77.09-6.4 77.89-8.45 79.24-10.48 80.59-12.5 82.34-14.23 84.09-15.95 85.99-16.98 87.89-18 89.74-18L89.74-18Q90.79-18 91.37-17.63 91.94-17.25 91.94-16.45L91.94-16.45Q91.94-16.25 91.92-16.1 91.89-15.95 91.84-15.75L91.84-15.75Q91.59-16.15 91.12-16.32 90.64-16.5 89.94-16.5L89.94-16.5Q88.34-16.5 86.82-15.53 85.29-14.55 84.02-12.98 82.74-11.4 81.79-9.6 80.84-7.8 80.32-6.13 79.79-4.45 79.79-3.3L79.79-3.3Q79.79-2.2 80.29-1.55 80.79-0.9 81.59-0.9L81.59-0.9Q82.94-0.9 84.87-2.6 86.79-4.3 88.79-7.4 90.79-10.5 92.39-14.65L92.39-14.65Q93.49-17.55 94.67-20.55 95.84-23.55 97.04-26.33 98.24-29.1 99.37-31.28 100.49-33.45 101.52-34.73 102.54-36 103.34-36L103.34-36Q103.74-36 104.04-35.68 104.34-35.35 104.34-34.85L104.34-34.85Q104.34-34.05 103.52-32.13 102.69-30.2 101.37-27.53 100.04-24.85 98.59-21.7 97.14-18.55 95.82-15.3 94.49-12.05 93.67-9.03 92.84-6 92.84-3.5L92.84-3.5Q92.84-2.1 92.99-1.4 93.14-0.7 93.99-0.7L93.99-0.7Q95.04-0.7 96.44-1.6 97.84-2.5 99.24-4.15 100.64-5.8 101.69-8.1L101.69-8.1 102.29-7.65Q101.34-5.1 99.69-3.08 98.04-1.05 96.17 0.13 94.29 1.3 92.59 1.3L92.59 1.3Q90.74 1.3 90.02 0.08 89.29-1.15 89.29-2.45L89.29-2.45Q89.29-3.3 89.54-4.7 89.79-6.1 90.24-7.8L90.24-7.8Q88.64-5.15 86.84-3.03 85.04-0.9 83.32 0.3 81.59 1.5 80.04 1.5ZM109.39 1.3L109.39 1.3Q107.69 1.3 106.72 0.4 105.74-0.5 105.74-1.95L105.74-1.95Q105.74-3.45 106.44-5.1 107.14-6.75 107.82-8.38 108.49-10 108.49-11.3L108.49-11.3Q108.49-12.9 107.57-13.68 106.64-14.45 105.69-15.1L105.69-15.1Q104.54-12.15 103.29-9.5 102.04-6.85 101.24-5.5L101.24-5.5 100.79-6.35Q101.49-7.65 102.62-10.15 103.74-12.65 104.84-15.85L104.84-15.85Q104.34-16.35 104.34-17.05L104.34-17.05Q104.34-18.55 105.19-19.5 106.04-20.45 106.44-20.45L106.44-20.45Q106.99-20.45 107.07-19.98 107.14-19.5 107.14-19.25L107.14-19.25Q107.14-19 106.87-18.28 106.59-17.55 106.59-17.4L106.59-17.4Q106.59-16.7 107.37-16.13 108.14-15.55 109.14-14.83 110.14-14.1 110.92-13.08 111.69-12.05 111.69-10.45L111.69-10.45Q111.69-8.95 111.07-7.4 110.44-5.85 109.82-4.45 109.19-3.05 109.19-2L109.19-2Q109.19-1.1 109.64-0.8 110.09-0.5 110.69-0.5L110.69-0.5Q111.89-0.5 113.17-1.25 114.44-2 115.64-3.15 116.84-4.3 117.79-5.58 118.74-6.85 119.19-7.95L119.19-7.95 119.84-7.45Q118.89-5.35 117.24-3.33 115.59-1.3 113.57 0 111.54 1.3 109.39 1.3ZM121.74 1.3L121.74 1.3Q119.79 1.3 118.84 0.08 117.89-1.15 117.89-2.9L117.89-2.9Q117.89-4.05 118.31-5.8 118.74-7.55 119.44-9.47 120.14-11.4 121.06-13.1 121.99-14.8 123.04-15.88 124.09-16.95 125.09-16.95L125.09-16.95Q125.54-16.95 125.86-16.68 126.19-16.4 126.19-15.85L126.19-15.85Q126.19-15.25 125.41-13.9 124.64-12.55 123.59-10.8 122.54-9.05 121.76-7.13 120.99-5.2 120.99-3.45L120.99-3.45Q120.99-1.65 121.59-1.05 122.19-0.45 123.44-0.45L123.44-0.45Q125.14-0.45 127.06-2.15 128.99-3.85 131.14-8.1L131.14-8.1 131.59-7.6Q130.14-3.3 127.41-1 124.69 1.3 121.74 1.3ZM127.74-21.6L127.74-21.6Q126.94-21.6 126.31-22 125.69-22.4 125.69-23.25L125.69-23.25Q125.69-24.3 126.91-25.08 128.14-25.85 129.34-25.85L129.34-25.85Q130.09-25.85 130.54-25.5 130.99-25.15 130.99-24.3L130.99-24.3Q130.99-23.35 129.96-22.48 128.94-21.6 127.74-21.6ZM132.09 14L132.09 14Q130.99 14 130.09 13.33 129.19 12.65 129.19 11.1L129.19 11.1Q129.19 9.6 130.11 8.33 131.04 7.05 132.49 5.98 133.94 4.9 135.66 4 137.39 3.1 138.94 2.3L138.94 2.3Q139.64 0.55 140.26-1.48 140.89-3.5 141.49-5.95L141.49-5.95Q139.59-3.2 137.51-1.38 135.44 0.45 133.34 0.45L133.34 0.45Q131.54 0.45 130.56-0.9 129.59-2.25 129.59-4.4L129.59-4.4Q129.59-7 130.86-9.35 132.14-11.7 134.19-13.5 136.24-15.3 138.54-16.32 140.84-17.35 142.84-17.35L142.84-17.35Q144.29-17.35 144.91-16.88 145.54-16.4 145.54-15.75L145.54-15.75Q145.54-15.3 145.29-15.05 145.04-14.8 144.94-14.75L144.94-14.75Q144.69-15.15 144.19-15.33 143.69-15.5 142.94-15.5L142.94-15.5Q140.99-15.5 139.16-14.35 137.34-13.2 135.94-11.4 134.54-9.6 133.71-7.68 132.89-5.75 132.89-4.15L132.89-4.15Q132.89-2.95 133.36-2.33 133.84-1.7 134.64-1.7L134.64-1.7Q136.09-1.7 138.11-3.63 140.14-5.55 142.04-8.3L142.04-8.3Q142.19-9 142.31-9.55 142.44-10.1 142.64-10.95L142.64-10.95Q142.79-11.65 143.36-12.58 143.94-13.5 145.19-13.5L145.19-13.5Q145.44-13.5 145.69-13.48 145.94-13.45 146.24-13.35L146.24-13.35Q146.24-12.55 145.76-10.43 145.29-8.3 144.41-5.48 143.54-2.65 142.39 0.35L142.39 0.35Q144.04-0.45 145.61-1.7 147.19-2.95 148.49-4.58 149.79-6.2 150.54-8.1L150.54-8.1 151.19-7.6Q150.44-5.35 148.79-3.5 147.14-1.65 145.26-0.3 143.39 1.05 141.84 1.8L141.84 1.8Q140.44 5.15 138.89 7.93 137.34 10.7 135.66 12.35 133.99 14 132.09 14ZM131.94 12.4L131.94 12.4Q132.94 12.4 134.66 10.43 136.39 8.45 138.39 3.65L138.39 3.65Q136.39 4.65 134.66 5.73 132.94 6.8 131.84 8 130.74 9.2 130.74 10.65L130.74 10.65Q130.74 11.45 131.09 11.93 131.44 12.4 131.94 12.4ZM152.03 2.35L152.03 2.35Q150.48 2.35 149.41 1.33 148.33 0.3 148.33-1.8L148.33-1.8Q148.33-3.6 149.13-5.68 149.93-7.75 151.33-9.78 152.73-11.8 154.51-13.48 156.28-15.15 158.26-16.15 160.23-17.15 162.18-17.15L162.18-17.15Q164.13-17.15 165.43-16.13 166.73-15.1 166.73-13.4L166.73-13.4Q166.73-12.15 166.06-11.7 165.38-11.25 164.28-11.25L164.28-11.25Q164.38-11.65 164.46-12.13 164.53-12.6 164.53-13L164.53-13Q164.53-14.15 163.98-14.98 163.43-15.8 162.08-15.8L162.08-15.8Q160.68-15.8 159.23-14.83 157.78-13.85 156.43-12.23 155.08-10.6 154.03-8.7 152.98-6.8 152.38-4.95 151.78-3.1 151.78-1.65L151.78-1.65Q151.78 0.3 153.13 0.3L153.13 0.3Q154.28 0.3 155.63-0.78 156.98-1.85 158.41-3.53 159.83-5.2 161.13-7 162.43-8.8 163.43-10.3L163.43-10.3Q163.63-10.6 163.68-10.6L163.68-10.6Q163.98-10.55 164.46-10.4 164.93-10.25 165.28-10 165.63-9.75 165.63-9.35L165.63-9.35Q165.63-8.9 165.18-8.13 164.73-7.35 164.18-6.35 163.63-5.35 163.18-4.33 162.73-3.3 162.73-2.4L162.73-2.4Q162.73-1.65 163.13-0.93 163.53-0.2 164.43-0.2L164.43-0.2Q165.78-0.2 167.98-2.18 170.18-4.15 172.43-8.1L172.43-8.1 172.93-7.6Q171.88-4.9 170.23-2.85 168.58-0.8 166.71 0.35 164.83 1.5 163.03 1.5L163.03 1.5Q161.18 1.5 160.31 0.4 159.43-0.7 159.43-2L159.43-2Q159.43-2.3 159.48-2.68 159.53-3.05 159.58-3.45L159.58-3.45Q157.43-0.55 155.66 0.9 153.88 2.35 152.03 2.35Z" opacity="1" transform="matrix(1,0,0,1,0,0)" fill="#000000" class="undefined-text-0" data-fill-palette-color="primary" id="text-0"></path></svg></g></svg></g></svg></g></svg></g></svg></g></svg></g></svg></g></svg></g><defs><mask id="72dbcb0b-83a9-40d1-a2f1-c0947721dbc0"><rect width="395.52" height="247.2" fill="white"></rect><g transform="matrix(1,0,0,1,2.842170943040401e-14,61.87014755959137)" id="clone"><svg viewBox="0 0 395.5199999999999 123.45970488081724" height="123.45970488081724" width="395.5199999999999"><g><svg viewBox="0 0 395.5199999999999 123.45970488081724" height="123.45970488081724" width="395.5199999999999"><g><svg viewBox="0 0 395.5199999999999 123.45970488081724" height="123.45970488081724" width="395.5199999999999"><g><svg viewBox="0 0 395.5199999999999 123.45970488081724" height="123.45970488081724" width="395.5199999999999"><g id="SvgjsG1060"><svg viewBox="0 0 395.5199999999999 123.45970488081724" height="123.45970488081724" width="395.5199999999999" id="SvgjsSvg1059"><g><svg viewBox="0 0 395.5199999999999 123.45970488081724" height="123.45970488081724" width="395.5199999999999"><g transform="matrix(1,0,0,1,0,0)"><svg width="395.5199999999999" viewBox="-1.25 -39 177.18 56" height="123.45970488081724" data-palette-color="#ffffff"><path d="M25.8 5.95L25.8 5.95Q23.5 5.95 21.55 4.67 19.6 3.4 17.8 1.85L17.8 1.85Q16.6 2.45 15.35 2.8 14.1 3.15 12.8 3.15L12.8 3.15Q11.1 3.15 10 2.63 8.9 2.1 8.33 1.35 7.75 0.6 7.53-0.13 7.3-0.85 7.3-1.25L7.3-1.25Q7.3-2.1 8.13-2.98 8.95-3.85 10.95-3.85L10.95-3.85Q13-3.85 14.95-2.88 16.9-1.9 18.9-0.65L18.9-0.65Q21.15-2.65 22.88-5.75 24.6-8.85 25.78-12.4 26.95-15.95 27.58-19.38 28.2-22.8 28.2-25.45L28.2-25.45Q28.2-29.55 26.65-32.1 25.1-34.65 21.6-34.65L21.6-34.65Q18.7-34.65 16.2-32.93 13.7-31.2 11.68-28.3 9.65-25.4 8.2-21.83 6.75-18.25 5.98-14.45 5.2-10.65 5.2-7.2L5.2-7.2Q5.2-6.15 5.3-5.1 5.4-4.05 5.6-3L5.6-3Q4.05-3 3.23-4 2.4-5 2.08-6.58 1.75-8.15 1.75-9.95L1.75-9.95Q1.75-13.7 2.75-17.43 3.75-21.15 5.58-24.5 7.4-27.85 9.88-30.43 12.35-33 15.33-34.5 18.3-36 21.55-36L21.55-36Q26.35-36 29.03-32.73 31.7-29.45 31.7-23.85L31.7-23.85Q31.7-20.7 30.85-17.28 30-13.85 28.48-10.58 26.95-7.3 24.9-4.5 22.85-1.7 20.4 0.2L20.4 0.2Q22.1 1.15 23.93 1.83 25.75 2.5 27.8 2.5L27.8 2.5Q28.9 2.5 29.43 2.3 29.95 2.1 30.7 1.9L30.7 1.9Q30.2 3.65 29.33 4.53 28.45 5.4 27.53 5.68 26.6 5.95 25.8 5.95ZM12.8 1.9L12.8 1.9Q13.85 1.9 14.83 1.63 15.8 1.35 16.7 0.85L16.7 0.85Q15.15-0.5 13.63-1.53 12.1-2.55 10.45-2.55L10.45-2.55Q9.3-2.55 8.95-2.08 8.6-1.6 8.6-1.2L8.6-1.2Q8.6-0.75 8.95-0.03 9.3 0.7 10.2 1.3 11.1 1.9 12.8 1.9ZM37.15 1.5L37.15 1.5Q35.45 1.5 34.42-0.03 33.4-1.55 33.4-3.55L33.4-3.55Q33.4-5 33.87-6.9 34.35-8.8 35.05-10.65 35.75-12.5 36.5-13.7 37.25-14.9 37.8-14.9L37.8-14.9Q38.05-14.9 38.65-14.63 39.25-14.35 39.65-13.9L39.65-13.9Q39.1-13.05 38.3-11.3 37.5-9.55 36.9-7.55 36.3-5.55 36.3-3.85L36.3-3.85Q36.3-3.45 36.4-2.63 36.5-1.8 36.9-1.15 37.3-0.5 38.1-0.5L38.1-0.5Q39.05-0.5 40.05-1.48 41.05-2.45 42.07-4 43.1-5.55 44.05-7.35 45-9.15 45.82-10.8 46.65-12.45 47.2-13.55L47.2-13.55Q47.5-13.5 48.07-13.35 48.65-13.2 49.12-12.95 49.6-12.7 49.6-12.25L49.6-12.25Q49.6-12.05 49.1-10.93 48.6-9.8 47.92-8.18 47.25-6.55 46.75-4.9 46.25-3.25 46.25-2L46.25-2Q46.25-1.1 46.62-0.55 47 0 47.9 0L47.9 0Q48.95 0 50.45-0.95 51.95-1.9 53.5-3.73 55.05-5.55 56.25-8.1L56.25-8.1 56.9-7.65Q55.85-4.95 54.15-2.88 52.45-0.8 50.55 0.35 48.65 1.5 46.85 1.5L46.85 1.5Q45.55 1.5 44.77 1 44 0.5 43.67-0.35 43.35-1.2 43.35-2.2L43.35-2.2Q43.35-2.8 43.45-3.43 43.55-4.05 43.7-4.7L43.7-4.7Q42.8-3.05 41.75-1.63 40.7-0.2 39.55 0.65 38.4 1.5 37.15 1.5ZM57.7 2.35L57.7 2.35Q56.15 2.35 55.07 1.33 54 0.3 54-1.8L54-1.8Q54-3.6 54.8-5.68 55.59-7.75 57-9.78 58.4-11.8 60.17-13.48 61.95-15.15 63.92-16.15 65.9-17.15 67.84-17.15L67.84-17.15Q69.8-17.15 71.09-16.13 72.4-15.1 72.4-13.4L72.4-13.4Q72.4-12.15 71.72-11.7 71.05-11.25 69.95-11.25L69.95-11.25Q70.05-11.65 70.12-12.13 70.2-12.6 70.2-13L70.2-13Q70.2-14.15 69.65-14.98 69.09-15.8 67.75-15.8L67.75-15.8Q66.34-15.8 64.9-14.83 63.45-13.85 62.09-12.23 60.75-10.6 59.7-8.7 58.65-6.8 58.05-4.95 57.45-3.1 57.45-1.65L57.45-1.65Q57.45 0.3 58.8 0.3L58.8 0.3Q59.95 0.3 61.3-0.78 62.65-1.85 64.07-3.53 65.5-5.2 66.8-7 68.09-8.8 69.09-10.3L69.09-10.3Q69.3-10.6 69.34-10.6L69.34-10.6Q69.65-10.55 70.12-10.4 70.59-10.25 70.95-10 71.3-9.75 71.3-9.35L71.3-9.35Q71.3-8.9 70.84-8.13 70.4-7.35 69.84-6.35 69.3-5.35 68.84-4.33 68.4-3.3 68.4-2.4L68.4-2.4Q68.4-1.65 68.8-0.93 69.2-0.2 70.09-0.2L70.09-0.2Q71.45-0.2 73.65-2.18 75.84-4.15 78.09-8.1L78.09-8.1 78.59-7.6Q77.55-4.9 75.9-2.85 74.25-0.8 72.37 0.35 70.5 1.5 68.7 1.5L68.7 1.5Q66.84 1.5 65.97 0.4 65.09-0.7 65.09-2L65.09-2Q65.09-2.3 65.15-2.68 65.2-3.05 65.25-3.45L65.25-3.45Q63.09-0.55 61.32 0.9 59.55 2.35 57.7 2.35ZM80.04 1.5L80.04 1.5Q79.19 1.5 78.32 1.07 77.44 0.65 76.87-0.3 76.29-1.25 76.29-2.7L76.29-2.7Q76.29-4.35 77.09-6.4 77.89-8.45 79.24-10.48 80.59-12.5 82.34-14.23 84.09-15.95 85.99-16.98 87.89-18 89.74-18L89.74-18Q90.79-18 91.37-17.63 91.94-17.25 91.94-16.45L91.94-16.45Q91.94-16.25 91.92-16.1 91.89-15.95 91.84-15.75L91.84-15.75Q91.59-16.15 91.12-16.32 90.64-16.5 89.94-16.5L89.94-16.5Q88.34-16.5 86.82-15.53 85.29-14.55 84.02-12.98 82.74-11.4 81.79-9.6 80.84-7.8 80.32-6.13 79.79-4.45 79.79-3.3L79.79-3.3Q79.79-2.2 80.29-1.55 80.79-0.9 81.59-0.9L81.59-0.9Q82.94-0.9 84.87-2.6 86.79-4.3 88.79-7.4 90.79-10.5 92.39-14.65L92.39-14.65Q93.49-17.55 94.67-20.55 95.84-23.55 97.04-26.33 98.24-29.1 99.37-31.28 100.49-33.45 101.52-34.73 102.54-36 103.34-36L103.34-36Q103.74-36 104.04-35.68 104.34-35.35 104.34-34.85L104.34-34.85Q104.34-34.05 103.52-32.13 102.69-30.2 101.37-27.53 100.04-24.85 98.59-21.7 97.14-18.55 95.82-15.3 94.49-12.05 93.67-9.03 92.84-6 92.84-3.5L92.84-3.5Q92.84-2.1 92.99-1.4 93.14-0.7 93.99-0.7L93.99-0.7Q95.04-0.7 96.44-1.6 97.84-2.5 99.24-4.15 100.64-5.8 101.69-8.1L101.69-8.1 102.29-7.65Q101.34-5.1 99.69-3.08 98.04-1.05 96.17 0.13 94.29 1.3 92.59 1.3L92.59 1.3Q90.74 1.3 90.02 0.08 89.29-1.15 89.29-2.45L89.29-2.45Q89.29-3.3 89.54-4.7 89.79-6.1 90.24-7.8L90.24-7.8Q88.64-5.15 86.84-3.03 85.04-0.9 83.32 0.3 81.59 1.5 80.04 1.5ZM109.39 1.3L109.39 1.3Q107.69 1.3 106.72 0.4 105.74-0.5 105.74-1.95L105.74-1.95Q105.74-3.45 106.44-5.1 107.14-6.75 107.82-8.38 108.49-10 108.49-11.3L108.49-11.3Q108.49-12.9 107.57-13.68 106.64-14.45 105.69-15.1L105.69-15.1Q104.54-12.15 103.29-9.5 102.04-6.85 101.24-5.5L101.24-5.5 100.79-6.35Q101.49-7.65 102.62-10.15 103.74-12.65 104.84-15.85L104.84-15.85Q104.34-16.35 104.34-17.05L104.34-17.05Q104.34-18.55 105.19-19.5 106.04-20.45 106.44-20.45L106.44-20.45Q106.99-20.45 107.07-19.98 107.14-19.5 107.14-19.25L107.14-19.25Q107.14-19 106.87-18.28 106.59-17.55 106.59-17.4L106.59-17.4Q106.59-16.7 107.37-16.13 108.14-15.55 109.14-14.83 110.14-14.1 110.92-13.08 111.69-12.05 111.69-10.45L111.69-10.45Q111.69-8.95 111.07-7.4 110.44-5.85 109.82-4.45 109.19-3.05 109.19-2L109.19-2Q109.19-1.1 109.64-0.8 110.09-0.5 110.69-0.5L110.69-0.5Q111.89-0.5 113.17-1.25 114.44-2 115.64-3.15 116.84-4.3 117.79-5.58 118.74-6.85 119.19-7.95L119.19-7.95 119.84-7.45Q118.89-5.35 117.24-3.33 115.59-1.3 113.57 0 111.54 1.3 109.39 1.3ZM121.74 1.3L121.74 1.3Q119.79 1.3 118.84 0.08 117.89-1.15 117.89-2.9L117.89-2.9Q117.89-4.05 118.31-5.8 118.74-7.55 119.44-9.47 120.14-11.4 121.06-13.1 121.99-14.8 123.04-15.88 124.09-16.95 125.09-16.95L125.09-16.95Q125.54-16.95 125.86-16.68 126.19-16.4 126.19-15.85L126.19-15.85Q126.19-15.25 125.41-13.9 124.64-12.55 123.59-10.8 122.54-9.05 121.76-7.13 120.99-5.2 120.99-3.45L120.99-3.45Q120.99-1.65 121.59-1.05 122.19-0.45 123.44-0.45L123.44-0.45Q125.14-0.45 127.06-2.15 128.99-3.85 131.14-8.1L131.14-8.1 131.59-7.6Q130.14-3.3 127.41-1 124.69 1.3 121.74 1.3ZM127.74-21.6L127.74-21.6Q126.94-21.6 126.31-22 125.69-22.4 125.69-23.25L125.69-23.25Q125.69-24.3 126.91-25.08 128.14-25.85 129.34-25.85L129.34-25.85Q130.09-25.85 130.54-25.5 130.99-25.15 130.99-24.3L130.99-24.3Q130.99-23.35 129.96-22.48 128.94-21.6 127.74-21.6ZM132.09 14L132.09 14Q130.99 14 130.09 13.33 129.19 12.65 129.19 11.1L129.19 11.1Q129.19 9.6 130.11 8.33 131.04 7.05 132.49 5.98 133.94 4.9 135.66 4 137.39 3.1 138.94 2.3L138.94 2.3Q139.64 0.55 140.26-1.48 140.89-3.5 141.49-5.95L141.49-5.95Q139.59-3.2 137.51-1.38 135.44 0.45 133.34 0.45L133.34 0.45Q131.54 0.45 130.56-0.9 129.59-2.25 129.59-4.4L129.59-4.4Q129.59-7 130.86-9.35 132.14-11.7 134.19-13.5 136.24-15.3 138.54-16.32 140.84-17.35 142.84-17.35L142.84-17.35Q144.29-17.35 144.91-16.88 145.54-16.4 145.54-15.75L145.54-15.75Q145.54-15.3 145.29-15.05 145.04-14.8 144.94-14.75L144.94-14.75Q144.69-15.15 144.19-15.33 143.69-15.5 142.94-15.5L142.94-15.5Q140.99-15.5 139.16-14.35 137.34-13.2 135.94-11.4 134.54-9.6 133.71-7.68 132.89-5.75 132.89-4.15L132.89-4.15Q132.89-2.95 133.36-2.33 133.84-1.7 134.64-1.7L134.64-1.7Q136.09-1.7 138.11-3.63 140.14-5.55 142.04-8.3L142.04-8.3Q142.19-9 142.31-9.55 142.44-10.1 142.64-10.95L142.64-10.95Q142.79-11.65 143.36-12.58 143.94-13.5 145.19-13.5L145.19-13.5Q145.44-13.5 145.69-13.48 145.94-13.45 146.24-13.35L146.24-13.35Q146.24-12.55 145.76-10.43 145.29-8.3 144.41-5.48 143.54-2.65 142.39 0.35L142.39 0.35Q144.04-0.45 145.61-1.7 147.19-2.95 148.49-4.58 149.79-6.2 150.54-8.1L150.54-8.1 151.19-7.6Q150.44-5.35 148.79-3.5 147.14-1.65 145.26-0.3 143.39 1.05 141.84 1.8L141.84 1.8Q140.44 5.15 138.89 7.93 137.34 10.7 135.66 12.35 133.99 14 132.09 14ZM131.94 12.4L131.94 12.4Q132.94 12.4 134.66 10.43 136.39 8.45 138.39 3.65L138.39 3.65Q136.39 4.65 134.66 5.73 132.94 6.8 131.84 8 130.74 9.2 130.74 10.65L130.74 10.65Q130.74 11.45 131.09 11.93 131.44 12.4 131.94 12.4ZM152.03 2.35L152.03 2.35Q150.48 2.35 149.41 1.33 148.33 0.3 148.33-1.8L148.33-1.8Q148.33-3.6 149.13-5.68 149.93-7.75 151.33-9.78 152.73-11.8 154.51-13.48 156.28-15.15 158.26-16.15 160.23-17.15 162.18-17.15L162.18-17.15Q164.13-17.15 165.43-16.13 166.73-15.1 166.73-13.4L166.73-13.4Q166.73-12.15 166.06-11.7 165.38-11.25 164.28-11.25L164.28-11.25Q164.38-11.65 164.46-12.13 164.53-12.6 164.53-13L164.53-13Q164.53-14.15 163.98-14.98 163.43-15.8 162.08-15.8L162.08-15.8Q160.68-15.8 159.23-14.83 157.78-13.85 156.43-12.23 155.08-10.6 154.03-8.7 152.98-6.8 152.38-4.95 151.78-3.1 151.78-1.65L151.78-1.65Q151.78 0.3 153.13 0.3L153.13 0.3Q154.28 0.3 155.63-0.78 156.98-1.85 158.41-3.53 159.83-5.2 161.13-7 162.43-8.8 163.43-10.3L163.43-10.3Q163.63-10.6 163.68-10.6L163.68-10.6Q163.98-10.55 164.46-10.4 164.93-10.25 165.28-10 165.63-9.75 165.63-9.35L165.63-9.35Q165.63-8.9 165.18-8.13 164.73-7.35 164.18-6.35 163.63-5.35 163.18-4.33 162.73-3.3 162.73-2.4L162.73-2.4Q162.73-1.65 163.13-0.93 163.53-0.2 164.43-0.2L164.43-0.2Q165.78-0.2 167.98-2.18 170.18-4.15 172.43-8.1L172.43-8.1 172.93-7.6Q171.88-4.9 170.23-2.85 168.58-0.8 166.71 0.35 164.83 1.5 163.03 1.5L163.03 1.5Q161.18 1.5 160.31 0.4 159.43-0.7 159.43-2L159.43-2Q159.43-2.3 159.48-2.68 159.53-3.05 159.58-3.45L159.58-3.45Q157.43-0.55 155.66 0.9 153.88 2.35 152.03 2.35Z" opacity="1" transform="matrix(1,0,0,1,0,0)" fill="#000000" class="undefined-text-0" data-fill-palette-color="primary" id="SvgjsPath1058" stroke-width="5" stroke="black" stroke-linejoin="round"></path></svg></g></svg></g></svg></g></svg></g></svg></g></svg></g></svg></g></mask></defs></svg><rect width="395.52" height="247.2" fill="none" stroke="none" visibility="hidden"></rect></g></svg></g></svg>